<?xml version="1.0" standalone="no"?>
<!DOCTYPE svg PUBLIC "-//W3C//DTD SVG 20010904//EN"
 "http://www.w3.org/TR/2001/REC-SVG-20010904/DTD/svg10.dtd">
<svg version="1.0" xmlns="http://www.w3.org/2000/svg"
 width="512.000000pt" height="512.000000pt" viewBox="0 0 512.000000 512.000000"
 preserveAspectRatio="xMidYMid meet">
<metadata>
Created by potrace 1.14, written by Peter Selinger 2001-2017
</metadata>
<g transform="translate(0.000000,512.000000) scale(0.100000,-0.100000)"
fill="#000000" stroke="none">
<path d="M1070 4928 c-267 -37 -510 -219 -625 -471 -50 -109 -68 -196 -71
-332 -2 -99 1 -135 20 -205 75 -285 265 -490 543 -585 26 -9 57 -19 68 -21
213 -39 382 -18 555 68 47 24 88 43 92 43 6 0 241 -285 366 -444 15 -19 32
-39 37 -45 6 -6 26 -31 45 -56 19 -25 37 -47 40 -50 6 -5 246 -302 339 -419
25 -31 47 -58 50 -61 4 -3 40 -48 82 -100 l76 -96 1 -744 c0 -848 5 -793 -81
-830 -29 -13 -70 -31 -92 -41 -22 -9 -121 -52 -220 -95 -99 -42 -198 -85 -219
-95 -22 -11 -46 -19 -54 -19 -7 0 -26 -13 -42 -28 -22 -22 -27 -35 -22 -58 12
-63 -55 -59 971 -61 876 -3 937 -2 957 15 34 27 38 66 12 96 -15 15 -139 74
-343 161 -176 75 -331 148 -344 161 -24 23 -25 27 -26 193 -1 178 -5 194 -50
211 -19 7 -20 16 -20 124 0 100 2 116 16 116 9 0 24 9 35 21 17 19 18 44 19
447 l1 427 274 340 c151 187 282 349 292 360 13 16 335 414 538 665 91 113
356 441 383 474 85 104 92 125 58 167 l-19 24 -807 0 c-544 1 -814 -2 -827
-10 -12 -5 -26 -19 -32 -30 -6 -11 -14 -22 -18 -25 -15 -12 -232 -4 -236 8 -2
6 -12 22 -21 34 -16 19 -29 22 -112 24 -132 3 -157 -2 -180 -40 l-19 -31 -105
0 -106 -1 -19 33 c-21 35 -21 35 -137 37 -39 1 -74 4 -78 7 -3 4 -8 20 -10 35
-58 448 -479 764 -935 702z"/>
</g>
</svg>
